<svg width="12" height="12" viewBox="0 0 12 12" fill="none" xmlns="http://www.w3.org/2000/svg">
<g id="Icon">
<path id="Vector" d="M8.11437 3.52313L11.3796 4.01995C11.65 4.05978 11.8772 4.25663 11.9636 4.52613C12.0499 4.79797 11.9795 5.09325 11.7841 5.29479L9.41637 7.6898L9.97535 11.1253C10.0208 11.4065 9.90945 11.6924 9.68223 11.8588C9.45727 12.0252 9.15961 12.0463 8.91648 11.9127L5.99889 10.3074L3.08358 11.9127C2.83817 12.0463 2.5405 12.0252 2.31555 11.8588C2.0906 11.6924 1.97698 11.4065 2.0247 11.1253L2.58368 7.6898L0.215525 5.29479C0.0198834 5.09325 -0.0496479 4.79797 0.0362437 4.52613C0.121908 4.25663 0.348453 4.05978 0.620897 4.01995L3.88341 3.52313L5.34675 0.422036C5.46718 0.16388 5.72167 0 5.99889 0C6.27838 0 6.53287 0.16388 6.6533 0.422036L8.11437 3.52313Z" fill="#0065FC"/>
</g>
</svg>
